<svg width="401" height="309" viewBox="0 0 401 309" fill="none" xmlns="http://www.w3.org/2000/svg">
<g opacity="0.2" clip-path="url(#clip0)">
<path d="M-17.266 89.6026C0.834495 95.0675 19.9723 84.7108 25.4795 66.4702C30.9866 48.2296 20.7777 29.0125 2.67719 23.5476C-15.4233 18.0828 -34.5612 28.4395 -40.0683 46.6801C-45.5755 64.9207 -35.3666 84.1378 -17.266 89.6026Z" fill="#5E6BEB"/>
<path d="M-50.3602 199.216C-32.2597 204.681 -13.1219 194.324 -7.61473 176.083C-2.10756 157.843 -12.3165 138.626 -30.417 133.161C-48.5175 127.696 -67.6554 138.053 -73.1625 156.293C-78.6697 174.534 -68.4608 193.751 -50.3602 199.216Z" fill="#A6AEFF"/>
<path d="M91.9354 122.573C110.036 128.037 129.174 117.681 134.681 99.4401C140.188 81.1995 129.979 61.9824 111.879 56.5175C93.7781 51.0527 74.6403 61.4094 69.1331 79.65C63.6259 97.8906 73.8349 117.108 91.9354 122.573Z" fill="#5E6BEB"/>
<path d="M125.03 12.9595C143.13 18.4244 162.268 8.0676 167.775 -10.173C173.282 -28.4136 163.073 -47.6306 144.973 -53.0955C126.872 -58.5604 107.734 -48.2036 102.227 -29.963C96.7202 -11.7225 106.929 7.49461 125.03 12.9595Z" fill="#3241D4"/>
<path d="M58.8414 232.186C76.9419 237.651 96.0797 227.294 101.587 209.053C107.094 190.813 96.8851 171.596 78.7846 166.131C60.6842 160.666 41.5464 171.023 36.0392 189.263C30.532 207.504 40.7409 226.721 58.8414 232.186Z" fill="#A6AEFF"/>
<path d="M201.137 155.543C219.238 161.007 238.375 150.651 243.882 132.41C249.39 114.169 239.181 94.9524 221.08 89.4875C202.98 84.0227 183.842 94.3794 178.335 112.62C172.828 130.861 183.037 150.078 201.137 155.543Z" fill="#5E6BEB"/>
<path d="M234.231 45.9294C252.332 51.3943 271.47 41.0376 276.977 22.797C282.484 4.5564 272.275 -14.6607 254.174 -20.1255C236.074 -25.5904 216.936 -15.2337 211.429 3.00693C205.922 21.2475 216.131 40.4646 234.231 45.9294Z" fill="#3241D4"/>
<path d="M168.043 265.156C186.143 270.62 205.281 260.264 210.788 242.023C216.295 223.783 206.087 204.565 187.986 199.101C169.886 193.636 150.748 203.992 145.241 222.233C139.733 240.474 149.942 259.691 168.043 265.156Z" fill="#A6AEFF"/>
<path d="M310.338 188.512C328.439 193.977 347.577 183.621 353.084 165.38C358.591 147.139 348.382 127.922 330.282 122.457C312.181 116.993 293.043 127.349 287.536 145.59C282.029 163.831 292.238 183.048 310.338 188.512Z" fill="#5E6BEB"/>
<path d="M343.433 78.8994C361.533 84.3642 380.671 74.0075 386.178 55.7669C391.685 37.5263 381.476 18.3092 363.376 12.8444C345.275 7.3795 326.138 17.7363 320.63 35.9768C315.123 54.2174 325.332 73.4345 343.433 78.8994Z" fill="#3241D4"/>
<path d="M277.244 298.126C295.345 303.59 314.483 293.234 319.99 274.993C325.497 256.752 315.288 237.535 297.187 232.07C279.087 226.606 259.949 236.962 254.442 255.203C248.935 273.444 259.144 292.661 277.244 298.126Z" fill="#A6AEFF"/>
</g>
<defs>
<clipPath id="clip0">
<rect width="323" height="312" fill="white" transform="translate(310.018 308.021) rotate(-163.2)"/>
</clipPath>
</defs>
</svg>
