<svg width="64" height="64" viewBox="0 0 64 64" fill="none" xmlns="http://www.w3.org/2000/svg">
<path d="M0.400024 0.399994C8.78057 0.399994 16.8189 3.72922 22.7444 9.65562C28.6708 15.5811 32 23.6195 32 32H0.400024" fill="#3241D4"/>
<path d="M32 32C32 23.6195 35.3292 15.5811 41.2556 9.65562C47.182 3.72922 55.2195 0.399994 63.6 0.399994V32" fill="#3241D4"/>
<path d="M0.400024 63.6C8.78057 63.6 16.8189 60.2708 22.7444 54.3444C28.6708 48.418 32 40.3805 32 32H0.400024" fill="#FFCA4F"/>
<path d="M32 32C32 40.3805 35.3292 48.418 41.2556 54.3444C47.182 60.2708 55.2195 63.6 63.6 63.6V32" fill="#FFCA4F"/>
</svg>
