<svg width="426" height="426" viewBox="0 0 426 426" fill="none" xmlns="http://www.w3.org/2000/svg">
<path d="M426 0H0V426H426V0Z" fill="white"/>
<path d="M426 0H0V426H426V0Z" fill="white"/>
<path d="M106.5 213C165.318 213 213 165.318 213 106.5C213 47.6817 165.318 0 106.5 0C47.6817 0 0 47.6817 0 106.5C0 165.318 47.6817 213 106.5 213Z" fill="#FFE097"/>
<path d="M319.5 213C378.318 213 426 165.318 426 106.5C426 47.6817 378.318 0 319.5 0C260.682 0 213 47.6817 213 106.5C213 165.318 260.682 213 319.5 213Z" fill="#5561DB"/>
<path d="M106.5 426C165.318 426 213 378.318 213 319.5C213 260.682 165.318 213 106.5 213C47.6817 213 0 260.682 0 319.5C0 378.318 47.6817 426 106.5 426Z" fill="#FFD981"/>
<path d="M319.5 426C378.318 426 426 378.318 426 319.5C426 260.682 378.318 213 319.5 213C260.682 213 213 260.682 213 319.5C213 378.318 260.682 426 319.5 426Z" fill="#E4E6F9"/>
</svg>
